<svg width="177" height="74" viewBox="0 0 177 74" fill="none" xmlns="http://www.w3.org/2000/svg">
<path d="M90.5 52L102.5 45.5L127 59.5L153 44.5L127 28.5L51.5 73.5L1.5 44.5L51.5 16.5L74.5 29.5L63.5 35.5L51.5 28.5L24 44.5L51.5 59.5L127 16.5L176.5 44.5L127 73.5L90.5 52Z" fill="#1248FC"/>
<path d="M50 56L29.5 44.5L39.5 38.5L51 45.5L50 56Z" fill="#1248FC"/>
<path d="M126.5 0.5L52 45.5L53 56L125.5 14L126.5 0.5Z" fill="#1248FC"/>
<path d="M88 22L76.5 28L52.5 14.5L52 0.5L88 22Z" fill="#1248FC"/>
<path d="M50 14.5L51 0.5L0.5 29.5V44L50 14.5Z" fill="#1248FC"/>
<path d="M128.5 14.5L127.5 1L177 29.5V44L128.5 14.5Z" fill="#1248FC"/>
<path d="M139.5 38.5L149 44L127.5 56.5V45L139.5 38.5Z" fill="#1248FC"/>
<path d="M126 45V56.5L105 44L114.5 38.5L126 45Z" fill="#1248FC"/>
</svg>
